# xmcd
#
# Track frame offsets:
#	150
#	22483
#	47222
#	61188
#	84425
#	99571
#	124492
#	149199
#	169223
#	186699
#	215448
#	236149
#	254045
#
# Disc length: 3633 seconds
#
# Revision: 9
# Processed by: cddbd v1.4b41PL1 Copyright (c) Steve Scherf et al.
# Submitted via: audiograbber 1.80
#
DISCID=d90e2f0d
DTITLE=Mark Knopfler - Sailing to Philadelphia
DYEAR=1900
DGENRE=
TTITLE0=What it is
TTITLE1=Sailing to Philadelphia
TTITLE2=Who's your baby now
TTITLE3=Baloney again
TTITLE4=The last laugh
TTITLE5=Silvertown blues
TTITLE6=El macho
TTITLE7=Prairie wedding
TTITLE8=Wanderlust
TTITLE9=Speedway at Nazareth
TTITLE10=Junkie doll
TTITLE11=Sands of Nevada
TTITLE12=One more matinee
EXTD=
EXTT0=
EXTT1=
EXTT2=
EXTT3=
EXTT4=
EXTT5=
EXTT6=
EXTT7=
EXTT8=
EXTT9=
EXTT10=
EXTT11=
EXTT12=
PLAYORDER=
